<svg viewBox="150 113 86 132" xmlns="http://www.w3.org/2000/svg">
  <path fill="#6366f1" d="M184.079,145.943c-0.49-0.091-0.983,0.152-1.272,0.543l-0.064,0.107c-0.122,0.128-0.226,0.275-0.303,0.438c-0.177,0.378-0.239,0.844-0.253,1.259c-0.012,0.358,0.018,0.716,0.075,1.069c-0.003,0.246-0.001,0.493,0.013,0.737c0.022,0.373,0.132,0.762,0.36,1.063c0.311,0.411,0.864,0.646,1.374,0.525c0.533-0.126,0.95-0.476,1.17-0.979c0.141-0.321,0.17-0.667,0.186-1.012c0.044-0.202,0.07-0.41,0.088-0.605c0.065-0.723,0.033-1.602-0.299-2.265C184.933,146.385,184.578,146.036,184.079,145.943z"/>
  <path fill="#6366f1" d="M207.742,150.707c0.141-0.321,0.17-0.667,0.186-1.012c0.044-0.202,0.07-0.41,0.088-0.605c0.065-0.723,0.033-1.602-0.299-2.265c-0.22-0.441-0.576-0.789-1.074-0.882c-0.491-0.091-0.983,0.152-1.272,0.543l-0.064,0.107c-0.122,0.128-0.226,0.275-0.303,0.438c-0.177,0.378-0.239,0.844-0.253,1.259c-0.012,0.358,0.018,0.716,0.075,1.069c-0.003,0.246-0.001,0.493,0.013,0.737c0.022,0.373,0.132,0.762,0.36,1.063c0.311,0.411,0.864,0.646,1.374,0.525C207.106,151.56,207.522,151.21,207.742,150.707z"/>
  <path fill="#6366f1" d="M198.197,154.431c-0.474,0.539-0.84,1.043-1.493,1.392c-0.648,0.345-1.372,0.541-2.106,0.558c-0.798,0.018-1.589-0.15-2.355-0.353c-0.415-0.11-0.817-0.264-1.202-0.452c-0.406-0.198-0.766-0.403-1.227-0.407c-0.175-0.002-0.369,0.128-0.324,0.332c0.21,0.97,1.365,1.583,2.169,2.034c0.973,0.545,2.109,0.757,3.216,0.717c0.93-0.033,1.888-0.29,2.705-0.737c0.884-0.483,1.826-1.204,2.233-2.156C200.247,154.339,198.877,153.657,198.197,154.431z"/>
  <path fill="#6366f1" d="M219.513,197.393l3.287-29.59h-10.145c8.853-4.757,14.731-13.052,14.731-22.474c0-14.73-14.356-26.714-32.002-26.714c-17.646,0-32.003,11.984-32.003,26.714c0,9.423,5.878,17.718,14.731,22.474h-7.076l1.207,10.862c-0.019,0.016-0.041,0.025-0.059,0.044c-1.279,1.354-2.291,3.006-3.413,4.492c-1.105,1.463-2.256,2.889-3.449,4.28c-1.227,1.43-2.49,2.828-3.802,4.18c-0.97,1-2.45,2.42-1.4,3.9c0.876,1.234,3.003,1.211,4.337,1.298c1.933,0.127,3.895,0.04,5.812-0.232c1.158-0.164,2.688-0.305,3.877-0.837l0.178,1.603h-21.982v45.345h3.651c0.002,0.223,0.013,0.447,0.022,0.67c0.02,0.491,0.033,0.983,0.063,1.473c0.029,0.49,0.063,0.979,0.094,1.469c0.03,0.476,0.006,1.001,0.112,1.466c0.105,0.462,0.453,0.802,0.945,0.797c0.449-0.005,0.886-0.35,0.924-0.82c0.043-0.527-0.051-1.081-0.093-1.608c-0.039-0.488-0.078-0.977-0.117-1.465c-0.039-0.488-0.096-0.974-0.146-1.461c-0.018-0.168-0.033-0.344-0.052-0.52h71.65c-0.008,0.057-0.017,0.117-0.025,0.171c-0.074,0.492-0.122,0.985-0.17,1.48c-0.047,0.478-0.093,0.955-0.14,1.432c-0.061,0.617-0.276,1.426,0.321,1.848c0.233,0.164,0.563,0.237,0.83,0.102c0.421-0.213,0.595-0.549,0.619-1.007c0.013-0.257,0.026-0.515,0.039-0.772c0.024-0.48,0.049-0.96,0.073-1.441c0.024-0.482,0.048-0.961,0.048-1.444c0-0.121,0.001-0.246,0.001-0.37h2.82v-1.153v-44.192H219.513z M165.688,145.329c0-13.458,13.322-24.408,29.697-24.408s29.696,10.949,29.696,24.408c0,10.09-7.492,18.763-18.141,22.474H183.83C173.18,164.091,165.688,155.419,165.688,145.329z M220.225,170.109l-2.818,25.363h-40.975l-2.818-25.363H220.225z M173.833,193.782c-0.202,0.342-1.505,0.451-1.821,0.52c-1.225,0.269-2.469,0.44-3.719,0.542c1.238-1.051,2.815-1.71,4.457-1.637C173.049,193.221,174.098,193.334,173.833,193.782z M169.418,192c-1.516,0.603-2.84,1.635-3.81,2.943c-0.728-0.014-1.456-0.055-2.181-0.12c-0.416-0.037-1.266,0.01-1.637-0.262c-0.502-0.37,0.387-1.098,0.684-1.409c1.899-1.986,3.715-4.048,5.414-6.208c0.943-1.199,1.866-2.419,2.732-3.676c0.619-0.9,1.278-1.819,1.824-2.786l1.219,10.976C172.287,191.154,170.652,191.51,169.418,192z M154.647,199.698h76.856l0,40.734h-76.856V199.698z"/>
</svg>
